# AST/ASF file generated using VICON BodyLanguage
# -----------------------------------------------
:version 1.10
:name VICON
:units
  mass 1.0
  length 0.45
  angle deg
:documentation
   .ast/.asf automatically generated from VICON data using
   VICON BodyBuilder and BodyLanguage model FoxedUp or BRILLIANT.MOD
:root
   order TX TY TZ RX RY RZ
   axis XYZ
   position 0 0 0  
   orientation 0 0 0 
:bonedata
  begin
     id 1 
     name lhipjoint
     direction 0.537252 -0.787203 0.302774 
     length 2.29576 
     axis 0 0 0  XYZ
  end
  begin
     id 2 
     name lfemur
     direction 0.34202 -0.939693 0  
     length 7.31114  
     axis 0 0 20  XYZ
    dof rx ry rz
    limits (-160.0 20.0)
           (-70.0 70.0)
           (-60.0 70.0)
  end
  begin
     id 3 
     name ltibia
     direction 0.34202 -0.939693 0   
     length 8.36008   
     axis 0 0 20   XYZ
    dof rx
    limits (-10.0 170.0)
  end
  begin
     id 4 
     name lfoot
     direction 0.0969116 -0.266263 0.959016   
     length 2.16704   
     axis -90 7.62852e-016 20   XYZ
    dof rx rz
    limits (-45.0 90.0)
           (-70.0 20.0)
  end
  begin
     id 5 
     name ltoes
     direction 1.53563e-011 -4.21779e-011 1   
     length 1.08338   
     axis -90 7.62852e-016 20   XYZ
    dof rx
    limits (-90.0 20.0)
  end
  begin
     id 6 
     name rhipjoint
     direction -0.588228 -0.754791 0.290308   
     length 2.39434  
     axis 0 0 0  XYZ 
  end
  begin
     id 7 
     name rfemur
     direction -0.34202 -0.939693 0   
     length 7.45207   
     axis 0 0 -20   XYZ
    dof rx ry rz
    limits (-160.0 20.0)
           (-70.0 70.0)
           (-70.0 60.0)
  end
  begin
     id 8 
     name rtibia
     direction -0.34202 -0.939693 0   
     length 8.03565   
     axis 0 0 -20   XYZ
    dof rx
    limits (-10.0 170.0)
 end
 begin
     id 9 
     name rfoot
     direction -0.107009 -0.294004 0.949795   
     length 2.11509  
     axis -90 -7.62852e-016 -20   XYZ
    dof rx rz
    limits (-45.0 90.0)
           (-20.0 70.0)
  end
  begin
     id 10 
     name rtoes
     direction -1.53533e-011 -4.22004e-011 1   
     length 1.05493   
     axis -90 -7.62852e-016 -20   XYZ
    dof rx
    limits (-90.0 20.0)
  end
  begin
     id 11 
     name lowerback
     direction -0.0115208 0.997969 -0.0626515   
     length 2.03153   
     axis 0 0 0   XYZ
    dof rx ry rz
    limits (-20.0 45.0)
           (-30.0 30.0)
           (-30.0 30.0)
  end
  begin
     id 12 
     name upperback
     direction -0.00423475 0.999974 -0.00583614   
     length 2.03619   
     axis 0 0 0   XYZ
    dof rx ry rz
    limits (-20.0 45.0)
           (-30.0 30.0)
           (-30.0 30.0)
  end
  begin
     id 13 
     name thorax
     direction 0.00289429 0.999728 0.0231573   
     length 2.03921   
     axis 0 0 0   XYZ
    dof rx ry rz
    limits (-20.0 45.0)
           (-30.0 30.0)
           (-30.0 30.0)
  end
  begin
     id 14 
     name lowerneck
     direction 0.0188995 0.987777 0.154721   
     length 1.78836   
     axis 0 0 0   XYZ
    dof rx ry rz
    limits (-20.0 45.0)
           (-30.0 30.0)
           (-30.0 30.0)
  end
  begin
     id 15 
     name upperneck
     direction -0.00612612 0.992995 -0.118   
     length 1.81789   
     axis 0 0 0   XYZ
    dof rx ry rz
    limits (-20.0 45.0)
           (-30.0 30.0)
           (-30.0 30.0)
  end
  begin
     id 16
     name head
     direction -0.00420226 0.998397 -0.0564482  
     length 1.82234  
     axis 0 0 0   XYZ
    dof rx ry rz
    limits (-20.0 45.0)
           (-30.0 30.0)
           (-30.0 30.0)
  end
  begin
     id 17 
     name lclavicle
     direction 0.916488 0.396539 0.0529676  
     length 3.51732  
     axis 0 0 0   XYZ
    dof ry rz
    limits (-20.0 10.0)
           (0.0 20.0)
  end
  begin
     id 18 
     name lhumerus
     direction 1 -4.4896e-011 8.36962e-028   
     length 5.45077   
     axis 180 -30 -90   XYZ
    dof rx ry rz
    limits (-60.0 90.0)
           (-90.0 90.0)
           (-90.0 90.0)
  end
  begin
     id 19
     name lradius
     direction 1 -4.48962e-011 3.01407e-027   
     length 3.05488   
     axis 180 -30 -90   XYZ
    dof rx
    limits (-10.0 170.0)
  end
  begin
     id 20
     name lwrist
     direction 1 -4.49002e-011 4.72961e-027   
     length 1.52744   
     axis -2.72261e-015 90 90   XYZ
    dof ry
    limits (-180.0 0.0)
 end
  begin
     id 21 
     name lhand
     direction 1 -4.4899e-011 9.45681e-027   
     length 0.638818   
     axis -6.0311e-015 90 90   XYZ
    dof rx rz
    limits (-90.0 90.0)
           (-45.0 45.0)
  end
  begin
     id 22 
     name lfingers
     direction 1 -4.48871e-011 1.88632e-026   
     length 0.515032   
     axis -1.20625e-014 90 90   XYZ
    dof rx
    limits (0.0 90.0)
  end
  begin
     id 23
     name lthumb
     direction 0.707107 -6.34964e-011 0.707107   
     length 0.739485   
     axis -90 45 6.32835e-014   XYZ
    dof rx rz
    limits (-45.0 45.0)
           (-45.0 45.0)
  end
  begin
     id 24 
     name rclavicle
     direction -0.949427 0.303202 0.0815894   
     length 3.76167  
     axis 0 0 0   XYZ 
    dof ry rz
    limits (-10.0 20.0)
           (-20.0 0.0)
  end
  begin
     id 25 
     name rhumerus
     direction -1 -4.48971e-011 -6.43969e-018  
     length 4.88702   
     axis 180 30 90   XYZ
    dof rx ry rz
    limits (-90.0 60.0)
           (-90.0 90.0)
           (-90.0 90.0)
  end
  begin
     id 26 
     name rradius
     direction -1 -4.48987e-011 5.46662e-027   
     length 3.22603   
     axis 180 30 90   XYZ
    dof rx
    limits (-10.0 170.0)
  end
  begin
     id 27 
     name rwrist
     direction -1 -4.48956e-011 4.72476e-027   
     length 1.61302   
     axis -2.72261e-015 -90 -90   XYZ
    dof ry
    limits (-180.0 0.0)
  end
  begin
     id 28
     name rhand
     direction -1 -4.4889e-011 9.43571e-027   
     length 0.716293   
     axis -6.0311e-015 -90 -90   XYZ
    dof rx rz
    limits (-90.0 90.0)
           (-45.0 45.0)
  end
  begin
     id 29
     name rfingers
     direction -1 -4.48887e-011 1.88701e-026   
     length 0.577494   
     axis -1.20625e-014 -90 -90   XYZ
    dof rx
    limits (0.0 90.0)
  end
  begin
     id 30
     name rthumb
     direction -0.707107 -6.34825e-011 0.707107   
     length 0.829169   
     axis -90 -45 -6.32835e-014   XYZ
    dof rx rz
    limits (-45.0 45.0)
           (-45.0 45.0)
  end
:hierarchy
  begin
    root lhipjoint rhipjoint lowerback
    lhipjoint lfemur
    lfemur ltibia
    ltibia lfoot
    lfoot ltoes
    rhipjoint rfemur
    rfemur rtibia
    rtibia rfoot
    rfoot rtoes
    lowerback upperback
    upperback thorax
    thorax lowerneck lclavicle rclavicle
    lowerneck upperneck
    upperneck head
    lclavicle lhumerus
    lhumerus lradius
    lradius lwrist
    lwrist lhand lthumb
    lhand lfingers
    rclavicle rhumerus
    rhumerus rradius
    rradius rwrist
    rwrist rhand rthumb
    rhand rfingers
  end

#!OML:ASF F:\VICON\USERDATA\INSTALL\rory3\rory3.ASF
:FULLY-SPECIFIED
:DEGREES
2139
root 1.96915 18.5138 0.257344 -344.093 60.6318 -357.409
lowerback -8.77324 -2.58807 0.745129
upperback -3.6099 -3.46143 1.46364
thorax 1.22031 -1.69773 0.756892
lowerneck -15.9226 7.48815 9.4374
upperneck 19.5093 9.11632 -4.70412
head 9.44238 4.48952 -1.95328
rclavicle 7.37988e-014 -1.11319e-014
rhumerus -22.4276 4.8528 -88.8132
rradius 94.7808
rwrist 171.964
rhand 2.97913 -22.9217
rfingers 7.12502
rthumb 28.4406 -50.7803
lclavicle 7.37988e-014 -1.11319e-014
lhumerus -49.9253 -37.3744 104.357
lradius 76.1935
lwrist 47.3294
lhand -20.7655 25.3659
lfingers 7.12502
lthumb 5.60077 55.2718
rfemur -17.1683 20.0791 7.73012
rtibia 6.65239
rfoot -4.02241 7.78901
rtoes 3.47802
lfemur -10.6013 13.378 -25.1813
ltibia 14.1218
lfoot -17.7576 18.5221
ltoes -24.3283
2140
root 1.97701 18.5119 0.253803 -343.802 60.7792 -356.977
lowerback -8.9063 -2.67925 0.646461
upperback -3.56924 -3.57546 1.34287
thorax 1.33485 -1.75464 0.668927
lowerneck -15.9517 7.21199 9.24994
upperneck 19.3857 8.75231 -4.63439
head 9.36352 4.31282 -1.95299
rclavicle -1.635e-014 1.15295e-014
rhumerus -23.0664 4.52522 -88.9548
rradius 92.329
rwrist 172.406
rhand 2.80826 -22.3052
rfingers 7.12502
rthumb 28.2773 -50.191
lclavicle -1.635e-014 1.15295e-014
lhumerus -48.1805 -36.2387 103.666
lradius 75.9415
lwrist 46.9687
lhand -20.024 25.8947
lfingers 7.12502
lthumb 6.31668 55.7805
rfemur -16.9036 19.8959 7.59085
rtibia 6.51822
rfoot -4.04476 7.78267
rtoes 3.23057
lfemur -10.5174 13.5685 -25.3934
ltibia 14.1862
lfoot -17.7546 18.1895
ltoes -24.3975
2141
root 1.98191 18.5102 0.252451 -343.569 60.8512 -356.696
lowerback -9.06626 -2.76621 0.536186
upperback -3.57897 -3.68136 1.27041
thorax 1.41574 -1.80663 0.637573
lowerneck -16.0737 6.91293 8.9428
upperneck 19.427 8.35784 -4.43484
head 9.34621 4.12627 -1.88901
rclavicle 1.0389e-013 -5.56597e-015
rhumerus -23.8377 4.19182 -89.0242
rradius 89.7971
rwrist 172.399
rhand 2.26501 -21.7905
rfingers 7.12502
rthumb 27.758 -49.7611
lclavicle 1.0389e-013 -5.56597e-015
lhumerus -46.5021 -35.0217 103.054
lradius 75.8692
lwrist 46.7057
lhand -19.7045 25.866
lfingers 7.12502
lthumb 6.62509 55.7423
rfemur -16.8044 19.7852 7.46348
rtibia 6.46821
rfoot -4.08206 7.81476
rtoes 3.37079
lfemur -10.5014 13.708 -25.5482
ltibia 14.2035
lfoot -17.8046 17.9827
ltoes -24.5258
2142
root 1.97444 18.509 0.251626 -343.577 60.7689 -356.677
lowerback -9.08549 -2.76944 0.447145
upperback -3.60521 -3.67619 1.20481
thorax 1.40043 -1.80371 0.620116
lowerneck -16.2631 6.56244 8.59545
upperneck 19.5479 7.87347 -4.11835
head 9.35807 3.90683 -1.78832
rclavicle -5.13361e-014 1.15295e-014
rhumerus -24.6515 3.51988 -89.096
rradius 87.2734
rwrist 172.096
rhand 1.42611 -21.3189
rfingers 7.12502
rthumb 26.9556 -49.4162
lclavicle -5.13361e-014 1.15295e-014
lhumerus -44.841 -33.8704 102.483
lradius 75.9273
lwrist 46.3875
lhand -19.9335 25.9824
lfingers 7.12502
lthumb 6.40405 55.8656
rfemur -16.8956 19.856 7.40707
rtibia 6.56712
rfoot -4.06329 7.83562
rtoes 3.68683
lfemur -10.4718 13.7744 -25.5733
ltibia 14.1542
lfoot -17.8021 17.9948
ltoes -24.4153
2143
root 1.96802 18.5099 0.249205 -343.645 60.7543 -356.807
lowerback -9.2425 -2.73871 0.510197
upperback -3.607 -3.63932 1.10851
thorax 1.47423 -1.78555 0.48195
lowerneck -16.5516 6.15644 8.20671
upperneck 19.7179 7.2973 -3.71961
head 9.39776 3.64953 -1.66233
rclavicle -1.08338e-014 -3.18055e-015
rhumerus -25.3134 2.6253 -89.1306
rradius 84.678
rwrist 171.392
rhand 0.728449 -20.658
rfingers 7.12502
rthumb 26.2879 -48.8567
lclavicle -1.08338e-014 -3.18055e-015
lhumerus -43.1784 -32.8235 101.938
lradius 76.1196
lwrist 45.8774
lhand -20.3476 25.7218
lfingers 7.12502
lthumb 6.00428 55.6168
rfemur -16.9642 19.8767 7.4439
rtibia 6.51002
rfoot -3.93482 7.8227
rtoes 3.93672
lfemur -10.5691 13.5983 -25.5143
ltibia 14.1951
lfoot -17.8734 18.1379
ltoes -24.0061
2144
root 1.96687 18.5101 0.243853 -343.557 60.8542 -356.78
lowerback -9.45446 -2.77027 0.549382
upperback -3.57299 -3.68479 1.0165
thorax 1.61745 -1.8082 0.348951
lowerneck -16.8656 5.72273 7.84005
upperneck 19.7875 6.69639 -3.43043
head 9.41528 3.36965 -1.58086
rclavicle -5.56597e-014 -2.38542e-014
rhumerus -25.9553 1.93517 -89.0516
rradius 82.2509
rwrist 170.482
rhand 0.14192 -20.1308
rfingers 7.12502
rthumb 25.7263 -48.4119
lclavicle -5.56597e-014 -2.38542e-014
lhumerus -41.4596 -31.8471 101.444
lradius 76.5027
lwrist 45.2996
lhand -20.7669 24.8306
lfingers 7.12502
lthumb 5.59939 54.7366
rfemur -16.9367 19.7651 7.441
rtibia 6.37205
rfoot -3.84946 7.84845
rtoes 3.88458
lfemur -10.7052 13.517 -25.5429
ltibia 14.2771
lfoot -17.8851 18.0765
ltoes -23.641
2145
root 1.96558 18.5099 0.236963 -343.604 60.9771 -356.821
lowerback -9.49735 -2.80686 0.626886
upperback -3.56934 -3.7389 0.942275
thorax 1.63497 -1.83582 0.221402
lowerneck -17.0508 5.27079 7.45696
upperneck 19.7418 6.09021 -3.168
head 9.37332 3.08457 -1.50987
rclavicle 8.18744e-015 -7.15625e-015
rhumerus -27.0566 1.38819 -88.8638
rradius 80.5166
rwrist 169.946
rhand -0.180335 -20.0825
rfingers 7.12502
rthumb 25.4176 -48.408
lclavicle 8.18744e-015 -7.15625e-015
lhumerus -39.8766 -30.9511 101.115
lradius 77.1259
lwrist 44.8827
lhand -20.9271 24.5193
lfingers 7.12502
lthumb 5.44472 54.4293
rfemur -16.8539 19.6586 7.50864
rtibia 6.28718
rfoot -3.83998 7.81727
rtoes 3.50875
lfemur -10.747 13.4842 -25.5159
ltibia 14.3244
lfoot -17.8453 18.0182
ltoes -23.8789
2146
root 1.96245 18.5076 0.233112 -343.753 60.9994 -356.921
lowerback -9.49438 -2.79082 0.647602
upperback -3.55824 -3.7183 0.878284
thorax 1.6392 -1.82604 0.146075
lowerneck -17.1944 4.77263 7.08373
upperneck 19.6679 5.42513 -2.9186
head 9.31572 2.77179 -1.45325
rclavicle -2.19036e-014 -4.37326e-015
rhumerus -28.0473 0.615492 -88.6622
rradius 78.3703
rwrist 170.046
rhand 0.0813286 -20.8592
rfingers 7.12502
rthumb 25.6683 -49.1487
lclavicle -2.19036e-014 -4.37326e-015
lhumerus -38.4316 -30.3161 100.976
lradius 77.9484
lwrist 44.6188
lhand -21.5191 24.287
lfingers 7.12502
lthumb 4.87317 54.211
rfemur -16.8059 19.6629 7.57924
rtibia 6.30245
rfoot -3.85678 7.78089
rtoes 3.53413
lfemur -10.6879 13.3565 -25.446
ltibia 14.3125
lfoot -17.8555 18.1124
ltoes -23.8015
2147
root 1.95998 18.5064 0.229806 -343.65 60.9894 -356.787
lowerback -9.57086 -2.78598 0.539459
upperback -3.5428 -3.70132 0.805511
thorax 1.69921 -1.81708 0.128811
lowerneck -17.3818 4.26571 6.63433
upperneck 19.5985 4.76396 -2.65367
head 9.26987 2.45619 -1.37662
rclavicle 3.2054e-015 -2.3059e-014
rhumerus -29.0527 -0.00895784 -88.4334
rradius 76.7251
rwrist 170.724
rhand 0.448825 -20.9967
rfingers 7.12502
rthumb 26.0202 -49.235
lclavicle 3.2054e-015 -2.3059e-014
lhumerus -36.9089 -29.7659 100.844
lradius 78.8038
lwrist 44.3987
lhand -21.7723 23.9308
lfingers 7.12502
lthumb 4.62864 53.8602
rfemur -16.7928 19.651 7.49814
rtibia 6.29799
rfoot -3.84082 7.78927
rtoes 3.73235
lfemur -10.6669 13.3258 -25.5254
ltibia 14.2963
lfoot -17.8273 18.163
ltoes -23.8308
2148
root 1.96019 18.5079 0.228278 -343.5 61.0984 -356.636
lowerback -9.73286 -2.8135 0.426213
upperback -3.52614 -3.72734 0.766571
thorax 1.80994 -1.82892 0.140024
lowerneck -17.5584 3.73629 6.05357
upperneck 19.5827 4.1028 -2.34262
head 9.24158 2.13681 -1.26196
rclavicle 2.30342e-014 -9.54166e-015
rhumerus -30.1865 -0.409191 -88.1094
rradius 75.7429
rwrist 171.885
rhand 0.947844 -20.6932
rfingers 7.12502
rthumb 26.4979 -48.8603
lclavicle 2.30342e-014 -9.54166e-015
lhumerus -35.3265 -29.2702 100.738
lradius 79.8064
lwrist 44.221
lhand -21.4471 24.3479
lfingers 7.12502
lthumb 4.94268 54.2702
rfemur -16.7668 19.5236 7.45782
rtibia 6.29998
rfoot -3.90257 7.77819
rtoes 3.65006
lfemur -10.6746 13.3695 -25.5845
ltibia 14.2883
lfoot -17.7775 17.9888
ltoes -23.7985
2149
root 1.95859 18.5093 0.224883 -343.655 61.1361 -356.737
lowerback -9.71871 -2.76064 0.4264
upperback -3.52947 -3.65594 0.730875
thorax 1.7963 -1.79344 0.111936
lowerneck -17.7018 3.18081 5.45693
upperneck 19.6002 3.4047 -1.9818
head 9.22271 1.80554 -1.13213
rclavicle -2.98674e-014 -3.18055e-015
rhumerus -31.541 -0.790299 -87.7003
rradius 75.1645
rwrist 173.022
rhand 1.10588 -20.4806
rfingers 7.12502
rthumb 26.6492 -48.6248
lclavicle -2.98674e-014 -3.18055e-015
lhumerus -33.7899 -29.0228 100.681
lradius 80.9067
lwrist 44.0306
lhand -20.7502 24.8211
lfingers 7.12502
lthumb 5.61553 54.7267
rfemur -16.7546 19.5111 7.52544
rtibia 6.42086
rfoot -3.9875 7.7653
rtoes 3.05254
lfemur -10.5784 13.4305 -25.5147
ltibia 14.2244
lfoot -17.7368 17.9082
ltoes -23.9063
2150
root 1.95758 18.5084 0.223383 -343.814 61.15 -356.885
lowerback -9.77702 -2.69642 0.475111
upperback -3.50684 -3.57423 0.668316
thorax 1.84465 -1.7529 0.025824
lowerneck -17.914 2.6121 4.80312
upperneck 19.5809 2.6789 -1.52435
head 9.20784 1.46685 -0.962089
rclavicle -2.64632e-014 -2.04748e-014
rhumerus -32.9184 -1.14532 -87.3104
rradius 74.8889
rwrist 173.987
rhand 0.904471 -20.1535
rfingers 7.12502
rthumb 26.4564 -48.3269
lclavicle -2.64632e-014 -2.04748e-014
lhumerus -32.2038 -28.8492 100.589
lradius 81.9968
lwrist 43.7714
lhand -20.8994 24.7701
lfingers 7.12502
lthumb 5.47148 54.6795
rfemur -16.9201 19.51 7.56696
rtibia 6.77534
rfoot -4.24767 7.80671
rtoes 2.17509
lfemur -10.4736 13.5466 -25.4371
ltibia 14.0492
lfoot -17.6365 17.8152
ltoes -24.0016
2151
root 1.9593 18.5071 0.225563 -343.64 61.2212 -356.556
lowerback -9.80426 -2.69476 0.283022
upperback -3.43829 -3.55352 0.564599
thorax 1.93574 -1.74248 0.0249352
lowerneck -18.1664 2.03022 4.0318
upperneck 19.5657 1.95375 -0.998339
head 9.20845 1.12754 -0.748553
rclavicle -7.82715e-016 2.78299e-015
rhumerus -34.2674 -1.43338 -86.8859
rradius 74.7819
rwrist 174.84
rhand 0.417706 -19.5244
rfingers 7.12502
rthumb 25.9904 -47.7671
lclavicle -7.82715e-016 2.78299e-015
lhumerus -30.6106 -28.7733 100.526
lradius 83.1561
lwrist 43.6682
lhand -21.4542 24.6368
lfingers 7.12502
lthumb 4.9358 54.5593
rfemur -16.9634 19.4068 7.43035
rtibia 7.20043
rfoot -4.53729 7.8918
rtoes 2.28354
lfemur -10.2041 13.7218 -25.5569
ltibia 13.7948
lfoot -17.4977 17.5514
ltoes -23.9841
2152
root 1.9648 18.5039 0.213063 -342.8 60.8692 -355.756
lowerback -10.0368 -2.58765 -0.0556358
upperback -3.45667 -3.37269 0.378827
thorax 2.05251 -1.65084 0.0324087
lowerneck -18.3538 1.48728 3.42463
upperneck 19.5353 1.30054 -0.72237
head 9.20661 0.806597 -0.639156
rclavicle 6.91398e-014 -1.72943e-014
rhumerus -35.6302 -1.53125 -86.3961
rradius 74.7413
rwrist 175.294
rhand 0.113707 -18.8399
rfingers 7.12502
rthumb 25.6993 -47.125
lclavicle 6.91398e-014 -1.72943e-014
lhumerus -28.9456 -28.9571 100.423
lradius 84.3297
lwrist 43.3752
lhand -20.9227 24.7846
lfingers 7.12502
lthumb 5.44903 54.6946
rfemur -17.3722 19.5223 6.66263
rtibia 7.41019
rfoot -4.58667 7.94661
rtoes 2.90363
lfemur -10.2686 13.8402 -26.1701
ltibia 13.6434
lfoot -17.4978 17.5982
ltoes -23.8665
